<?xml version="1.0" encoding="UTF-8"?><svg xmlns="http://www.w3.org/2000/svg" xmlns:xlink="http://www.w3.org/1999/xlink" viewBox="8.344 8.155 92.116 44.471"><defs><style>.d{stroke-width:.4px;}.d,.e,.f,.g{stroke:#fff;stroke-miterlimit:10;}.d,.f,.g{fill:none;}.h,.e{fill:#fff;}.e,.f{stroke-width:.1px;}.i{fill:#0d2731;}.j{isolation:isolate;}.k{fill:url(#c);mix-blend-mode:soft-light;}.l{fill:url(#b);}.m{fill:#0d4a62;}.g{stroke-width:.25px;}</style><linearGradient id="b" x1="55.405" y1="48.919" x2="55.405" y2="17.149" gradientUnits="userSpaceOnUse"><stop offset="0" stop-color="#a5c4df"/><stop offset=".131" stop-color="#8bb2d9"/><stop offset=".277" stop-color="#77a5d5"/><stop offset=".444" stop-color="#699cd2"/><stop offset=".648" stop-color="#6196d0"/><stop offset="1" stop-color="#5f95d0"/></linearGradient><linearGradient id="c" x1="41.255" y1="9.159" x2="41.255" y2="51.629" gradientUnits="userSpaceOnUse"><stop offset="0" stop-color="#f1f9fe"/><stop offset="1" stop-color="#187fc4" stop-opacity="0"/></linearGradient></defs><g class="j"><g id="a"><rect class="i" x="9.344" y="9.155" width="90.116" height="42.471" rx="8.031" ry="8.031"/><path class="l" d="M91.89,27.159v6.38c0,.82.55,1.52,1.34,1.75.8.23,1.55.67,2.18,1.26.37.34.57.83.57,1.33v8.27c0,.5-.2.99-.57,1.33-.97.9-2.19,1.44-3.52,1.44H16.65c-1.01,0-1.82-.81-1.82-1.82v-29.95h81.15v5.68c0,.5-.2.99-.57,1.33-.63.59-1.37,1.02-2.18,1.25-.79.23-1.34.93-1.34,1.75Z"/><path class="m" d="M95.98,14.559v2.59H14.83v-3.55c0-1.01.81-1.82,1.82-1.82h75.24c1.33,0,2.55.54,3.52,1.45.37.34.57.83.57,1.33Z"/><path class="h" d="M34.049,38.046c.333.25.333.5,0,.75h-5.625c-2.25.083-4.292-.792-6.125-2.625-.75,1.166-1.5,2.083-2.25,2.75-.417.083-.584-.084-.5-.5.833-.834,1.583-1.792,2.25-2.875-.75-1-1.292-2.25-1.625-3.75.166-.416.416-.458.75-.125.25,1.084.666,2.125,1.25,3.125.5-1.083.833-2.208,1-3.375.083-.416-.125-.625-.625-.625h-1.125c-1.25.084-1.542-.458-.875-1.625,1-1.25,1.708-2.291,2.125-3.125.25-.333.125-.5-.375-.5h-2.375c-.334-.25-.334-.5,0-.75h2.25c1.166,0,1.625.375,1.375,1.125-.417,1-1.167,2.167-2.25,3.5-.334.5-.209.709.375.625h.875c1,0,1.458.417,1.375,1.25-.167,1.334-.584,2.75-1.25,4.25,1.75,1.75,3.666,2.583,5.75,2.5h5.625ZM28.174,24.171c.25-.333.5-.333.75,0v1.125h2.375c1.083,0,1.541.459,1.375,1.375v1.125h1.375c.333.25.333.5,0,.75h-1.375v1.375c.083.834-.334,1.209-1.25,1.125h-2.5v1.5h4c.333.25.333.5,0,.75h-4v1.5h4.5c.333.25.333.5,0,.75h-4.5v1.875c-.25.333-.5.333-.75,0v-1.875h-4.25c-.334-.25-.334-.5,0-.75h4.25v-1.5h-3.75c-.334-.25-.334-.5,0-.75h3.75v-1.5h-3.5c-.334-.25-.334-.5,0-.75h3.5v-1.75h-4c-.417-.25-.417-.5,0-.75h4v-1.75h-3.5c-.417-.25-.417-.5,0-.75h3.5v-1.125ZM31.174,26.046h-2.25v1.75h3v-1c.083-.5-.167-.75-.75-.75ZM31.924,28.546h-3v1.75h2.25c.583.084.833-.166.75-.75v-1Z"/><path class="h" d="M49.478,28.671c-.167,3.5-.584,6.584-1.25,9.25h3.75c.416.25.416.5,0,.75h-13.75c-.334-.25-.334-.5,0-.75h9.25c.666-2.666,1.083-5.75,1.25-9.25.166-.416.416-.416.75,0ZM44.978,24.421c.416,1.167.708,2.084.875,2.75h6.125c.416.25.416.5,0,.75h-13.5c-.334-.166-.334-.416,0-.75h6.5c-.167-.833-.417-1.666-.75-2.5.083-.583.333-.666.75-.25ZM40.978,28.921c.916,3.25,1.5,6.084,1.75,8.5-.25.5-.5.5-.75,0-.334-2.583-.917-5.333-1.75-8.25.083-.5.333-.583.75-.25Z"/><path class="h" d="M56.157,29.296h1.625c1,0,1.458.542,1.375,1.625v4.625c1.25,1.583,2.875,2.333,4.875,2.25h6.625c.333.25.333.5,0,.75h-6.75c-2.25-.084-3.917-.792-5-2.125-.417.75-1.125,1.5-2.125,2.25-.417,0-.584-.209-.5-.625,1.5-1.084,2.208-2.083,2.125-3v-4.125c.083-.583-.167-.875-.75-.875h-1.5c-.334-.25-.334-.5,0-.75ZM57.532,24.421c.583.834,1.166,1.834,1.75,3,0,.417-.209.584-.625.5-.667-1.333-1.25-2.375-1.75-3.125.083-.333.291-.458.625-.375ZM64.157,24.171c.5-.25.75-.125.75.375-.25.5-.459.917-.625,1.25h5.875c.333.25.333.5,0,.75h-6.125c-.5,1-1.042,1.959-1.625,2.875-.25.5-.125.709.375.625h2.375v-2.5c.25-.416.5-.416.75,0v2.5h3.5c.333.25.333.5,0,.75h-3.5v2h4.5c.416.25.416.5,0,.75h-4.5v3.75c-.25.416-.5.416-.75,0v-3.75h-5.25c-.334-.25-.334-.5,0-.75h5.25v-2h-2.875c-1.084.084-1.417-.291-1-1.125.666-1,1.291-2.041,1.875-3.125h-3c-.334-.333-.334-.583,0-.75h3.25c.25-.5.5-1.041.75-1.625Z"/><path class="h" d="M76.46,24.296c.25-.416.5-.416.75,0v3.125h1.75c.416.25.416.5,0,.75h-1.75v4c.583-.333,1.125-.666,1.625-1,.416,0,.541.209.375.625-.584.417-1.25.834-2,1.25v4.875c.083.833-.792,1-2.625.5-.334-.417-.25-.667.25-.75,1.25.416,1.791.375,1.625-.125v-4.125c-.5.25-1.084.5-1.75.75-.417-.083-.5-.333-.25-.75.666-.25,1.333-.541,2-.875v-4.375h-1.875c-.334-.25-.334-.5,0-.75h1.875v-3.125ZM78.96,32.421h2.875c.416-.583.791-1.166,1.125-1.75h-4.25c-.334-.25-.334-.5,0-.75h2.875c-.167-.75-.417-1.708-.75-2.875.166-.416.416-.458.75-.125.333,1.25.583,2.25.75,3h2.75c.416-1.083.75-2.083,1-3,.416-.333.666-.25.75.25-.167.584-.459,1.5-.875,2.75h2.75c.333.25.333.5,0,.75h-4.875c-.334.584-.709,1.167-1.125,1.75h6.25c.333.25.333.5,0,.75h-1.75c-.584,1.584-1.375,2.792-2.375,3.625,1.416.5,2.666,1,3.75,1.5.25.416.125.625-.375.625-1.167-.5-2.5-1.042-4-1.625-1.417.916-3.292,1.416-5.625,1.5-.334-.25-.334-.5,0-.75,1.916-.084,3.5-.459,4.75-1.125-1-.416-1.917-.791-2.75-1.125-.667-.333-.834-.75-.5-1.25.333-.416.708-.875,1.125-1.375h-2.25c-.334-.25-.334-.5,0-.75ZM79.585,25.671h3.625l-.25-1.5c.166-.416.416-.458.75-.125l.25,1.625h3.875c.333.25.333.5,0,.75h-8.25c-.334-.25-.334-.5,0-.75ZM86.335,33.171h-4.125c-.5.584-.917,1.084-1.25,1.5-.25.25-.125.459.375.625.583.25,1.5.625,2.75,1.125,1.083-.916,1.833-2,2.25-3.25Z"/><path class="k" d="M73.17,9.159L17.23,51.629c-4.37-.08-7.89-3.65-7.89-8.03v-26.41c0-4.44,3.6-8.03,8.03-8.03h55.8Z"/><rect class="d" x="77.799" y="12.51" width="5.389" height="3.341"/><rect class="g" x="76.924" y="13.462" width=".952" height="1.437"/><rect class="f" x="78.4" y="13.046" width=".427" height="2.269"/><rect class="f" x="79.357" y="13.046" width=".427" height="2.269"/><rect class="e" x="80.28" y="13.046" width=".427" height="2.269"/><rect class="e" x="81.27" y="13.046" width=".427" height="2.269"/><rect class="e" x="82.173" y="13.046" width=".427" height="2.269"/><path class="h" d="M18.028,13.309v.281h-.281v-.281h.281ZM18.028,13.621v.281h-.281v-.281h.281ZM18.028,14.869v.281h-.281v-.281h.281ZM18.028,15.181v.281h-.281v-.281h.281ZM18.339,12.998v.281h-.28v-.281h.28ZM18.339,14.557v.281h-.28v-.281h.28ZM18.339,15.181v.281h-.28v-.281h.28ZM18.651,12.998v.281h-.281v-.281h.281ZM18.651,14.245v.281h-.281v-.281h.281ZM18.651,15.181v.281h-.281v-.281h.281ZM18.963,12.998v.281h-.28v-.281h.28ZM18.963,13.933v.28h-.28v-.28h.28ZM18.963,15.181v.281h-.28v-.281h.28ZM19.275,13.309v.281h-.281v-.281h.281ZM19.275,13.621v.281h-.281v-.281h.281ZM19.275,15.181v.281h-.281v-.281h.281Z"/><path class="h" d="M19.899,13.309v.281h-.281v-.281h.281ZM19.899,13.621v.281h-.281v-.281h.281ZM19.899,13.933v.28h-.281v-.28h.281ZM19.899,14.245v.281h-.281v-.281h.281ZM19.899,14.557v.281h-.281v-.281h.281ZM19.899,14.869v.281h-.281v-.281h.281ZM20.21,12.998v.281h-.28v-.281h.28ZM20.21,15.181v.281h-.28v-.281h.28ZM20.522,12.998v.281h-.281v-.281h.281ZM20.522,15.181v.281h-.281v-.281h.281ZM20.834,12.998v.281h-.28v-.281h.28ZM20.834,15.181v.281h-.28v-.281h.28ZM21.146,13.309v.281h-.281v-.281h.281ZM21.146,13.621v.281h-.281v-.281h.281ZM21.146,13.933v.28h-.281v-.28h.281ZM21.146,14.245v.281h-.281v-.281h.281ZM21.146,14.557v.281h-.281v-.281h.281ZM21.146,14.869v.281h-.281v-.281h.281Z"/><path class="h" d="M22.393,13.621v.281h-.281v-.281h.281ZM22.393,13.933v.28h-.281v-.28h.281ZM22.393,14.869v.281h-.281v-.281h.281ZM22.393,15.181v.281h-.281v-.281h.281Z"/><path class="h" d="M23.641,13.309v.281h-.281v-.281h.281ZM23.641,14.869v.281h-.281v-.281h.281ZM23.952,12.998v.281h-.28v-.281h.28ZM23.952,15.181v.281h-.28v-.281h.28ZM24.264,12.998v.281h-.281v-.281h.281ZM24.264,13.933v.28h-.281v-.28h.281ZM24.264,15.181v.281h-.281v-.281h.281ZM24.576,12.998v.281h-.28v-.281h.28ZM24.576,13.933v.28h-.28v-.28h.28ZM24.576,15.181v.281h-.28v-.281h.28ZM24.888,13.309v.281h-.281v-.281h.281ZM24.888,13.621v.281h-.281v-.281h.281ZM24.888,14.245v.281h-.281v-.281h.281ZM24.888,14.557v.281h-.281v-.281h.281ZM24.888,14.869v.281h-.281v-.281h.281Z"/><path class="h" d="M25.511,13.309v.281h-.281v-.281h.281ZM25.511,13.621v.281h-.281v-.281h.281ZM25.511,14.245v.281h-.281v-.281h.281ZM25.511,14.557v.281h-.281v-.281h.281ZM25.511,14.869v.281h-.281v-.281h.281ZM25.823,12.998v.281h-.28v-.281h.28ZM25.823,13.933v.28h-.28v-.28h.28ZM25.823,15.181v.281h-.28v-.281h.28ZM26.135,12.998v.281h-.281v-.281h.281ZM26.135,13.933v.28h-.281v-.28h.281ZM26.135,15.181v.281h-.281v-.281h.281ZM26.446,12.998v.281h-.28v-.281h.28ZM26.446,13.933v.28h-.28v-.28h.28ZM26.446,15.181v.281h-.28v-.281h.28ZM26.758,13.309v.281h-.281v-.281h.281ZM26.758,13.621v.281h-.281v-.281h.281ZM26.758,14.245v.281h-.281v-.281h.281ZM26.758,14.557v.281h-.281v-.281h.281ZM26.758,14.869v.281h-.281v-.281h.281Z"/><line class="g" x1="29.916" y1="13.313" x2="29.916" y2="16.313"/><line class="g" x1="31.261" y1="13.563" x2="31.261" y2="16.063"/><line class="g" x1="32.507" y1="13.813" x2="32.507" y2="15.813"/><rect class="h" x="87.966" y="38.267" width="3.617" height=".65" rx=".3" ry=".3"/></g></g></svg>